# xmcd CD database file
#
# Track frame offsets:
#	150
#	7596
#	30642
#	49832
#	74741
#	96691
#	112707
#	140223
#	169943
#	264216
#
# Disc length: 3801 seconds
#
# Revision: 0
# Processed by: cddbd v1.5.2PL0 Copyright (c) Steve Scherf et al.
# Submitted via: CDex 1.81
#
DISCID=870ed70a
DTITLE=Lux Terminus - The Courage To Be
DYEAR=2018
DGENRE=New Age
TTITLE0=Prologue: The Departure (I)
TTITLE1=Electrocommunion
TTITLE2=The Journey (II)
TTITLE3=Aberration
TTITLE4=Miles Away
TTITLE5=Spectral Shapes
TTITLE6=The Road Home (III)
TTITLE7=Effusion
TTITLE8=The Courage To Be
TTITLE9=Epilogue: Fly (IV)
EXTD=YEAR: 2018
EXTT0=
EXTT1=
EXTT2=
EXTT3=
EXTT4=
EXTT5=
EXTT6=
EXTT7=
EXTT8=
EXTT9=
PLAYORDER=
